<svg xmlns="http://www.w3.org/2000/svg" viewBox="0 0 48 48" width="48" height="48"><path fill="#fff" d="M45.943 46.286H2.057a.343.343 0 0 1-.343-.343V14.055a.343.343 0 0 1 .343-.343h43.886a.343.343 0 0 1 .343.343v31.888a.343.343 0 0 1-.343.343M2.4 45.6h43.2V14.398H2.4zM27.562 6.568h-7.124a.343.343 0 0 1 0-.686h7.125a.343.343 0 0 1 0 .686"/><path fill="#fff" d="M45.943 14.399H2.057a.343.343 0 0 1-.343-.343V6.225a.343.343 0 0 1 .343-.343h5.469a.343.343 0 0 1 0 .686H2.4v7.145h43.2V6.568h-5.126a.343.343 0 0 1 0-.686h5.469a.343.343 0 0 1 .343.343v7.831a.343.343 0 0 1-.343.343"/><path fill="#fff" d="M17.544 6.568h-7.125a.343.343 0 0 1 0-.686h7.125a.343.343 0 0 1 0 .686m20.037 0h-7.125a.343.343 0 0 1 0-.686h7.125a.343.343 0 0 1 0 .686"/><path fill="#fff" d="M8.974 10.737a1.79 1.79 0 0 1-1.79-1.79V3.504c0-.986.803-1.79 1.79-1.79s1.789.803 1.789 1.79v5.444a1.79 1.79 0 0 1-1.79 1.79zm0-8.337A1.105 1.105 0 0 0 7.87 3.504v5.443a1.105 1.105 0 0 0 1.104 1.104 1.105 1.105 0 0 0 1.104-1.104V3.504A1.105 1.105 0 0 0 8.974 2.4m10.017 8.337a1.79 1.79 0 0 1-1.79-1.79V3.504c0-.986.803-1.79 1.79-1.79s1.79.803 1.79 1.79v5.444a1.79 1.79 0 0 1-1.79 1.79m0-8.338a1.105 1.105 0 0 0-1.104 1.104v5.443a1.105 1.105 0 0 0 1.104 1.104 1.105 1.105 0 0 0 1.104-1.104V3.504A1.105 1.105 0 0 0 18.991 2.4m10.018 8.337a1.79 1.79 0 0 1-1.79-1.79V3.504c0-.986.803-1.79 1.79-1.79s1.79.803 1.79 1.79v5.444a1.79 1.79 0 0 1-1.79 1.79m0-8.338a1.105 1.105 0 0 0-1.104 1.104v5.443a1.105 1.105 0 0 0 1.104 1.104 1.105 1.105 0 0 0 1.104-1.104V3.504A1.105 1.105 0 0 0 29.009 2.4m10.018 8.337a1.79 1.79 0 0 1-1.79-1.79V3.504c0-.986.803-1.79 1.79-1.79s1.79.803 1.79 1.79v5.444a1.79 1.79 0 0 1-1.79 1.79m0-8.337a1.105 1.105 0 0 0-1.104 1.104v5.443a1.105 1.105 0 0 0 1.104 1.104 1.105 1.105 0 0 0 1.104-1.104V3.504A1.105 1.105 0 0 0 39.027 2.4zM22.311 23.999h-6.986a.343.343 0 0 1-.343-.343v-6.171a.343.343 0 0 1 .343-.343h6.986a.343.343 0 0 1 .343.343v6.171a.343.343 0 0 1-.343.343m-6.643-.686h6.3v-5.486h-6.3zm17.007.686h-6.986a.343.343 0 0 1-.343-.343v-6.171a.343.343 0 0 1 .343-.343h6.986a.343.343 0 0 1 .343.343v6.171a.343.343 0 0 1-.343.343m-6.643-.686h6.3v-5.486h-6.3zm17.007.686h-6.986a.343.343 0 0 1-.343-.343v-6.171a.343.343 0 0 1 .343-.343h6.986a.343.343 0 0 1 .343.343v6.171a.343.343 0 0 1-.343.343m-6.643-.686h6.3v-5.486h-6.3zM11.947 33.427H4.961a.343.343 0 0 1-.343-.343v-6.171a.343.343 0 0 1 .343-.343h6.986a.343.343 0 0 1 .343.343v6.171a.343.343 0 0 1-.343.343m-6.643-.686h6.3v-5.486h-6.3zm17.007.686h-6.986a.343.343 0 0 1-.343-.343v-6.171a.343.343 0 0 1 .343-.343h6.986a.343.343 0 0 1 .343.343v6.171a.343.343 0 0 1-.343.343m-6.643-.686h6.3v-5.486h-6.3zm17.007.686h-6.986a.343.343 0 0 1-.343-.343v-6.171a.343.343 0 0 1 .343-.343h6.986a.343.343 0 0 1 .343.343v6.171a.343.343 0 0 1-.343.343m-6.643-.686h6.3v-5.486h-6.3zm17.007.686h-6.986a.343.343 0 0 1-.343-.343v-6.171a.343.343 0 0 1 .343-.343h6.986a.343.343 0 0 1 .343.343v6.171a.343.343 0 0 1-.343.343m-6.643-.686h6.3v-5.486h-6.3zM11.947 42.855H4.961a.343.343 0 0 1-.343-.343v-6.171a.343.343 0 0 1 .343-.343h6.986a.343.343 0 0 1 .343.343v6.171a.343.343 0 0 1-.343.343m-6.643-.686h6.3v-5.486h-6.3zm17.007.686h-6.986a.343.343 0 0 1-.343-.343v-6.171a.343.343 0 0 1 .343-.343h6.986a.343.343 0 0 1 .343.343v6.171a.343.343 0 0 1-.343.343m-6.643-.686h6.3v-5.486h-6.3zm17.007.686h-6.986a.343.343 0 0 1-.343-.343v-6.171a.343.343 0 0 1 .343-.343h6.986a.343.343 0 0 1 .343.343v6.171a.343.343 0 0 1-.343.343m-6.643-.686h6.3v-5.486h-6.3zm17.007.686h-6.986a.343.343 0 0 1-.343-.343v-6.171a.343.343 0 0 1 .343-.343h6.986a.343.343 0 0 1 .343.343v6.171a.343.343 0 0 1-.343.343m-6.643-.686h6.3v-5.486h-6.3z"/><path fill="#fff" d="M30.382 31.542a.34.34 0 0 1-.243-.1l-2.4-2.4a.343.343 0 1 1 .485-.485l2.4 2.4a.343.343 0 0 1-.242.585"/><path fill="#fff" d="M27.982 31.542a.343.343 0 0 1-.242-.585l2.4-2.4a.343.343 0 1 1 .485.485l-2.4 2.4a.34.34 0 0 1-.242.1m10.754-9.367a.34.34 0 0 1-.242-.1l-.905-.905a.343.343 0 1 1 .485-.485l.662.662 2.281-2.281a.343.343 0 1 1 .485.485l-2.523 2.523a.34.34 0 0 1-.243.1M28.373 41.031a.34.34 0 0 1-.242-.1l-.905-.905a.343.343 0 1 1 .485-.485l.662.662 2.281-2.281a.343.343 0 1 1 .485.485l-2.524 2.523a.34.34 0 0 1-.242.1"/></svg>
